<?xml version="1.0" encoding="utf-8"?>
<svg id="master-artboard" viewBox="0 0 800 800" version="1.1" xmlns="http://www.w3.org/2000/svg" x="0px" y="0px" style="enable-background:new 0 0 1400 980;" width="800px" height="800px"><rect id="ee-background" x="0" y="0" width="800" height="800" style="fill: white; fill-opacity: 0; pointer-events: none;"/><path d="M 308.12554931640625 302.8699951171875 L 312.965576171875 302.8699951171875 C 315.2388916015625 302.8699951171875 316.8822326660156 303.2099914550781 317.89556884765625 303.8900146484375 C 318.9089050292969 304.57000732421875 319.4155578613281 305.6433410644531 319.4155578613281 307.1099853515625 C 319.4155578613281 308.1233215332031 319.1322326660156 308.9599914550781 318.5655517578125 309.6199951171875 C 317.9989013671875 310.2799987792969 317.1722412109375 310.7099914550781 316.0855712890625 310.9100036621094 L 316.0855712890625 311.0199890136719 C 318.6922302246094 311.4666748046875 319.9955749511719 312.8333435058594 319.9955749511719 315.1199951171875 C 319.9955749511719 316.6533203125 319.4755554199219 317.8500061035156 318.4355773925781 318.7099914550781 C 317.4022216796875 319.57000732421875 315.95556640625 320 314.0955505371094 320 L 308.12554931640625 320 L 308.12554931640625 302.8699951171875 M 310.1155700683594 310.20001220703125 L 313.39556884765625 310.20001220703125 C 314.80224609375 310.20001220703125 315.8122253417969 309.9800109863281 316.4255676269531 309.5400085449219 C 317.0455627441406 309.1000061035156 317.3555603027344 308.3566589355469 317.3555603027344 307.30999755859375 C 317.3555603027344 306.3500061035156 317.0122375488281 305.65667724609375 316.3255615234375 305.2300109863281 C 315.6388854980469 304.8033447265625 314.5455627441406 304.5899963378906 313.0455627441406 304.5899963378906 L 310.1155700683594 304.5899963378906 L 310.1155700683594 310.20001220703125 M 310.1155700683594 311.8900146484375 L 310.1155700683594 318.29998779296875 L 313.6855773925781 318.29998779296875 C 315.0722351074219 318.29998779296875 316.11224365234375 318.0333251953125 316.8055725097656 317.5 C 317.50555419921875 316.9666748046875 317.8555603027344 316.1266784667969 317.8555603027344 314.9800109863281 C 317.8555603027344 313.9200134277344 317.4989013671875 313.1400146484375 316.7855529785156 312.6400146484375 C 316.0722351074219 312.1400146484375 314.9855651855469 311.8900146484375 313.52557373046875 311.8900146484375 L 310.1155700683594 311.8900146484375 ZM 324.4261779785156 320 L 322.4761657714844 320 L 322.4761657714844 307.1600036621094 L 324.4261779785156 307.1600036621094 L 324.4261779785156 320 M 322.316162109375 303.67999267578125 C 322.316162109375 303.23333740234375 322.4261779785156 302.90667724609375 322.64617919921875 302.70001220703125 C 322.8594970703125 302.49334716796875 323.1328430175781 302.3900146484375 323.4661560058594 302.3900146484375 C 323.7795104980469 302.3900146484375 324.04949951171875 302.49334716796875 324.2761535644531 302.70001220703125 C 324.5028381347656 302.913330078125 324.6161804199219 303.239990234375 324.6161804199219 303.67999267578125 C 324.6161804199219 304.11334228515625 324.5028381347656 304.4366760253906 324.2761535644531 304.6499938964844 C 324.04949951171875 304.8699951171875 323.7795104980469 304.9800109863281 323.4661560058594 304.9800109863281 C 323.1328430175781 304.9800109863281 322.8594970703125 304.8699951171875 322.64617919921875 304.6499938964844 C 322.4261779785156 304.4366760253906 322.316162109375 304.11334228515625 322.316162109375 303.67999267578125 ZM 336.4369812011719 320 L 336.4369812011719 311.69000244140625 C 336.4369812011719 310.6433410644531 336.2003173828125 309.86334228515625 335.72698974609375 309.3500061035156 C 335.2469787597656 308.8299865722656 334.50030517578125 308.57000732421875 333.4869689941406 308.57000732421875 C 332.14031982421875 308.57000732421875 331.156982421875 308.9333190917969 330.5369873046875 309.6600036621094 C 329.9103088378906 310.38665771484375 329.59698486328125 311.586669921875 329.59698486328125 313.260009765625 L 329.59698486328125 320 L 327.64697265625 320 L 327.64697265625 307.1600036621094 L 329.22698974609375 307.1600036621094 L 329.5469665527344 308.9100036621094 L 329.636962890625 308.9100036621094 C 330.0369873046875 308.27667236328125 330.59698486328125 307.78668212890625 331.3169860839844 307.44000244140625 C 332.0369873046875 307.09332275390625 332.83697509765625 306.9200134277344 333.71697998046875 306.9200134277344 C 335.2636413574219 306.9200134277344 336.4302978515625 307.2933349609375 337.21697998046875 308.0400085449219 C 337.9969787597656 308.78668212890625 338.386962890625 309.9800109863281 338.386962890625 311.6199951171875 L 338.386962890625 320 L 336.4369812011719 320 ZM 352.56732177734375 313.57000732421875 C 352.56732177734375 315.663330078125 352.0406494140625 317.2966613769531 350.9873352050781 318.4700012207031 C 349.9273376464844 319.6433410644531 348.4706726074219 320.2300109863281 346.6173400878906 320.2300109863281 C 345.4639892578125 320.2300109863281 344.4440002441406 319.9633483886719 343.5573425292969 319.42999267578125 C 342.66400146484375 318.8900146484375 341.9739990234375 318.1166687011719 341.4873352050781 317.1099853515625 C 341.00732421875 316.0966796875 340.767333984375 314.9166564941406 340.767333984375 313.57000732421875 C 340.767333984375 311.4766540527344 341.2906494140625 309.84332275390625 342.33734130859375 308.6700134277344 C 343.3840026855469 307.5033264160156 344.83734130859375 306.9200134277344 346.69732666015625 306.9200134277344 C 348.49066162109375 306.9200134277344 349.9173278808594 307.51666259765625 350.9773254394531 308.7099914550781 C 352.0373229980469 309.9100036621094 352.56732177734375 311.5299987792969 352.56732177734375 313.57000732421875 M 342.7773132324219 313.57000732421875 C 342.7773132324219 315.2099914550781 343.1073303222656 316.4599914550781 343.767333984375 317.32000732421875 C 344.420654296875 318.17999267578125 345.3840026855469 318.6099853515625 346.6573181152344 318.6099853515625 C 347.9306640625 318.6099853515625 348.8973388671875 318.17999267578125 349.5573425292969 317.32000732421875 C 350.2173156738281 316.4666748046875 350.5473327636719 315.2166748046875 350.5473327636719 313.57000732421875 C 350.5473327636719 311.9366760253906 350.2173156738281 310.6966552734375 349.5573425292969 309.8500061035156 C 348.8973388671875 308.9966735839844 347.9239807128906 308.57000732421875 346.6373291015625 308.57000732421875 C 345.3639831542969 308.57000732421875 344.40399169921875 308.989990234375 343.75732421875 309.8299865722656 C 343.10400390625 310.663330078125 342.7773132324219 311.9100036621094 342.7773132324219 313.57000732421875 ZM 371.4433288574219 320 L 371.4433288574219 311.6400146484375 C 371.4433288574219 310.6199951171875 371.2266845703125 309.85333251953125 370.7933349609375 309.3399963378906 C 370.35333251953125 308.82666015625 369.67333984375 308.57000732421875 368.7533264160156 308.57000732421875 C 367.5400085449219 308.57000732421875 366.6433410644531 308.9200134277344 366.0633239746094 309.6199951171875 C 365.489990234375 310.3133239746094 365.2033386230469 311.3833312988281 365.2033386230469 312.8299865722656 L 365.2033386230469 320 L 363.2533264160156 320 L 363.2533264160156 311.6400146484375 C 363.2533264160156 310.6199951171875 363.03668212890625 309.85333251953125 362.60333251953125 309.3399963378906 C 362.163330078125 308.82666015625 361.4800109863281 308.57000732421875 360.5533447265625 308.57000732421875 C 359.3333435058594 308.57000732421875 358.44000244140625 308.9366760253906 357.8733215332031 309.6700134277344 C 357.3066711425781 310.4033203125 357.0233459472656 311.6000061035156 357.0233459472656 313.260009765625 L 357.0233459472656 320 L 355.0733337402344 320 L 355.0733337402344 307.1600036621094 L 356.6533508300781 307.1600036621094 L 356.97332763671875 308.9100036621094 L 357.0633239746094 308.9100036621094 C 357.4366760253906 308.2900085449219 357.9566650390625 307.8033447265625 358.6233215332031 307.45001220703125 C 359.2900085449219 307.0966796875 360.03668212890625 306.9200134277344 360.86334228515625 306.9200134277344 C 362.8699951171875 306.9200134277344 364.183349609375 307.64666748046875 364.8033447265625 309.1000061035156 L 364.8933410644531 309.1000061035156 C 365.2799987792969 308.4266662597656 365.836669921875 307.89666748046875 366.5633239746094 307.510009765625 C 367.2900085449219 307.1166687011719 368.1166687011719 306.9200134277344 369.0433349609375 306.9200134277344 C 370.4966735839844 306.9200134277344 371.5833435058594 307.2933349609375 372.3033447265625 308.0400085449219 C 373.0299987792969 308.78668212890625 373.3933410644531 309.9800109863281 373.3933410644531 311.6199951171875 L 373.3933410644531 320 L 371.4433288574219 320 ZM 378.4469299316406 320 L 376.4969177246094 320 L 376.4969177246094 307.1600036621094 L 378.4469299316406 307.1600036621094 L 378.4469299316406 320 M 376.3369140625 303.67999267578125 C 376.3369140625 303.23333740234375 376.4469299316406 302.90667724609375 376.66693115234375 302.70001220703125 C 376.8802490234375 302.49334716796875 377.1535949707031 302.3900146484375 377.4869079589844 302.3900146484375 C 377.8002624511719 302.3900146484375 378.07025146484375 302.49334716796875 378.2969055175781 302.70001220703125 C 378.5235900878906 302.913330078125 378.6369323730469 303.239990234375 378.6369323730469 303.67999267578125 C 378.6369323730469 304.11334228515625 378.5235900878906 304.4366760253906 378.2969055175781 304.6499938964844 C 378.07025146484375 304.8699951171875 377.8002624511719 304.9800109863281 377.4869079589844 304.9800109863281 C 377.1535949707031 304.9800109863281 376.8802490234375 304.8699951171875 376.66693115234375 304.6499938964844 C 376.4469299316406 304.4366760253906 376.3369140625 304.11334228515625 376.3369140625 303.67999267578125 ZM 389.5677185058594 320 L 389.177734375 318.1700134277344 L 389.0877380371094 318.1700134277344 C 388.4477233886719 318.9766540527344 387.8077392578125 319.5233459472656 387.167724609375 319.80999755859375 C 386.5343933105469 320.0899963378906 385.7410583496094 320.2300109863281 384.7877197265625 320.2300109863281 C 383.514404296875 320.2300109863281 382.5177307128906 319.9033203125 381.7977294921875 319.25 C 381.0710754394531 318.5966796875 380.7077331542969 317.663330078125 380.7077331542969 316.45001220703125 C 380.7077331542969 313.8566589355469 382.78106689453125 312.4966735839844 386.927734375 312.3699951171875 L 389.10772705078125 312.29998779296875 L 389.10772705078125 311.5 C 389.10772705078125 310.49334716796875 388.89105224609375 309.75 388.4577331542969 309.2699890136719 C 388.0243835449219 308.7900085449219 387.3310546875 308.54998779296875 386.3777160644531 308.54998779296875 C 385.3110656738281 308.54998779296875 384.10107421875 308.8800048828125 382.74774169921875 309.5400085449219 L 382.1477355957031 308.04998779296875 C 382.78106689453125 307.7033386230469 383.4743957519531 307.4333190917969 384.22772216796875 307.239990234375 C 384.9810485839844 307.0466613769531 385.73773193359375 306.95001220703125 386.49774169921875 306.95001220703125 C 388.03106689453125 306.95001220703125 389.1643981933594 307.28668212890625 389.8977355957031 307.9599914550781 C 390.6377258300781 308.6400146484375 391.0077209472656 309.7300109863281 391.0077209472656 311.2300109863281 L 391.0077209472656 320 L 389.5677185058594 320 M 385.177734375 318.6300048828125 C 386.3843994140625 318.6300048828125 387.3343811035156 318.2966613769531 388.0277404785156 317.6300048828125 C 388.7210693359375 316.9700012207031 389.0677185058594 316.0400085449219 389.0677185058594 314.8399963378906 L 389.0677185058594 313.67999267578125 L 387.11773681640625 313.7699890136719 C 385.571044921875 313.8233337402344 384.4577331542969 314.0633239746094 383.7777404785156 314.489990234375 C 383.091064453125 314.9100036621094 382.74774169921875 315.57000732421875 382.74774169921875 316.4700012207031 C 382.74774169921875 317.1766662597656 382.9610595703125 317.7133483886719 383.3877258300781 318.0799865722656 C 383.81439208984375 318.4466552734375 384.41107177734375 318.6300048828125 385.177734375 318.6300048828125 ZM 396.06536865234375 320 L 394.1153564453125 320 L 394.1153564453125 301.7699890136719 L 396.06536865234375 301.7699890136719 L 396.06536865234375 320 ZM 311.9755554199219 347.42999267578125 C 312.3222351074219 347.42999267578125 312.65557861328125 347.4033203125 312.9755554199219 347.3499755859375 C 313.2955627441406 347.3033142089844 313.54888916015625 347.25 313.7355651855469 347.19000244140625 L 313.7355651855469 348.67999267578125 C 313.522216796875 348.7866516113281 313.21221923828125 348.8699951171875 312.8055725097656 348.92999267578125 C 312.3922424316406 348.99664306640625 312.022216796875 349.0299987792969 311.695556640625 349.0299987792969 C 309.2088928222656 349.0299987792969 307.965576171875 347.72332763671875 307.965576171875 345.1099853515625 L 307.965576171875 337.4700012207031 L 306.12554931640625 337.4700012207031 L 306.12554931640625 336.5299987792969 L 307.965576171875 335.7200012207031 L 308.7855529785156 332.97998046875 L 309.9155578613281 332.97998046875 L 309.9155578613281 335.9599914550781 L 313.64556884765625 335.9599914550781 L 313.64556884765625 337.4700012207031 L 309.9155578613281 337.4700012207031 L 309.9155578613281 345.0299987792969 C 309.9155578613281 345.8033142089844 310.0989074707031 346.39666748046875 310.465576171875 346.80999755859375 C 310.8322448730469 347.22332763671875 311.3355712890625 347.42999267578125 311.9755554199219 347.42999267578125 ZM 320.82855224609375 349.0299987792969 C 318.9285583496094 349.0299987792969 317.4285583496094 348.45330810546875 316.32855224609375 347.29998779296875 C 315.2352294921875 346.14666748046875 314.6885681152344 344.53997802734375 314.6885681152344 342.47998046875 C 314.6885681152344 340.413330078125 315.19854736328125 338.7699890136719 316.21856689453125 337.54998779296875 C 317.2385559082031 336.3299865722656 318.605224609375 335.7200012207031 320.3185729980469 335.7200012207031 C 321.931884765625 335.7200012207031 323.2052307128906 336.25 324.1385498046875 337.30999755859375 C 325.07855224609375 338.3699951171875 325.5485534667969 339.76666259765625 325.5485534667969 341.5 L 325.5485534667969 342.72998046875 L 316.69854736328125 342.72998046875 C 316.7385559082031 344.2366638183594 317.12188720703125 345.3799743652344 317.84857177734375 346.15997314453125 C 318.5685729980469 346.9466552734375 319.5852355957031 347.3399963378906 320.8985595703125 347.3399963378906 C 322.278564453125 347.3399963378906 323.6452331542969 347.04998779296875 324.9985656738281 346.4700012207031 L 324.9985656738281 348.1999816894531 C 324.3118896484375 348.5 323.6618957519531 348.71331787109375 323.0485534667969 348.8399963378906 C 322.43524169921875 348.9666442871094 321.6952209472656 349.0299987792969 320.82855224609375 349.0299987792969 M 320.2985534667969 337.3499755859375 C 319.2652282714844 337.3499755859375 318.44189453125 337.6866455078125 317.82855224609375 338.3599853515625 C 317.2152404785156 339.0333251953125 316.855224609375 339.96331787109375 316.7485656738281 341.1499938964844 L 323.46856689453125 341.1499938964844 C 323.46856689453125 339.9233093261719 323.19189453125 338.9833068847656 322.6385498046875 338.3299865722656 C 322.0918884277344 337.6766662597656 321.3118896484375 337.3499755859375 320.2985534667969 337.3499755859375 ZM 336.2533874511719 345.29998779296875 C 336.2533874511719 346.4933166503906 335.80670166015625 347.413330078125 334.91339111328125 348.05999755859375 C 334.0267028808594 348.7066650390625 332.7767028808594 349.0299987792969 331.16339111328125 349.0299987792969 C 329.46337890625 349.0299987792969 328.13671875 348.7633361816406 327.1833801269531 348.22998046875 L 327.1833801269531 346.41998291015625 C 327.7967224121094 346.7333068847656 328.45672607421875 346.97998046875 329.16339111328125 347.15997314453125 C 329.87005615234375 347.3399963378906 330.5533752441406 347.42999267578125 331.21337890625 347.42999267578125 C 332.2267150878906 347.42999267578125 333.0067138671875 347.26666259765625 333.5533752441406 346.94000244140625 C 334.10003662109375 346.6199951171875 334.3733825683594 346.12664794921875 334.3733825683594 345.4599914550781 C 334.3733825683594 344.9599914550781 334.1567077636719 344.5333251953125 333.723388671875 344.17999267578125 C 333.2900390625 343.8199768066406 332.44671630859375 343.3999938964844 331.1933898925781 342.91998291015625 C 329.9933776855469 342.47332763671875 329.14337158203125 342.08331298828125 328.64337158203125 341.75 C 328.13671875 341.4166564941406 327.7600402832031 341.03997802734375 327.51336669921875 340.6199951171875 C 327.2667236328125 340.1999816894531 327.14337158203125 339.6966552734375 327.14337158203125 339.1099853515625 C 327.14337158203125 338.0633239746094 327.5700378417969 337.2366638183594 328.4233703613281 336.6299743652344 C 329.2767028808594 336.0233154296875 330.4433898925781 335.7200012207031 331.9233703613281 335.7200012207031 C 333.31005859375 335.7200012207031 334.66339111328125 336.0033264160156 335.9833679199219 336.5699768066406 L 335.29339599609375 338.1499938964844 C 334.00006103515625 337.6166687011719 332.8300476074219 337.3499755859375 331.78338623046875 337.3499755859375 C 330.8633728027344 337.3499755859375 330.1700439453125 337.4933166503906 329.703369140625 337.7799987792969 C 329.23004150390625 338.0733337402344 328.9933776855469 338.47332763671875 328.9933776855469 338.97998046875 C 328.9933776855469 339.32666015625 329.0833740234375 339.6199951171875 329.26336669921875 339.8599853515625 C 329.43670654296875 340.0999755859375 329.7200622558594 340.3299865722656 330.1133728027344 340.54998779296875 C 330.50006103515625 340.7699890136719 331.25006103515625 341.086669921875 332.3633728027344 341.5 C 333.8833923339844 342.0533142089844 334.9100341796875 342.6099853515625 335.4433898925781 343.16998291015625 C 335.9833679199219 343.7366638183594 336.2533874511719 344.4466552734375 336.2533874511719 345.29998779296875 ZM 342.6627197265625 347.42999267578125 C 343.0093994140625 347.42999267578125 343.3427429199219 347.4033203125 343.6627197265625 347.3499755859375 C 343.98272705078125 347.3033142089844 344.2360534667969 347.25 344.4227294921875 347.19000244140625 L 344.4227294921875 348.67999267578125 C 344.2093811035156 348.7866516113281 343.8993835449219 348.8699951171875 343.49273681640625 348.92999267578125 C 343.07940673828125 348.99664306640625 342.7093811035156 349.0299987792969 342.3827209472656 349.0299987792969 C 339.89605712890625 349.0299987792969 338.6527404785156 347.72332763671875 338.6527404785156 345.1099853515625 L 338.6527404785156 337.4700012207031 L 336.8127136230469 337.4700012207031 L 336.8127136230469 336.5299987792969 L 338.6527404785156 335.7200012207031 L 339.47271728515625 332.97998046875 L 340.60272216796875 332.97998046875 L 340.60272216796875 335.9599914550781 L 344.3327331542969 335.9599914550781 L 344.3327331542969 337.4700012207031 L 340.60272216796875 337.4700012207031 L 340.60272216796875 345.0299987792969 C 340.60272216796875 345.8033142089844 340.78607177734375 346.39666748046875 341.1527404785156 346.80999755859375 C 341.5194091796875 347.22332763671875 342.0227355957031 347.42999267578125 342.6627197265625 347.42999267578125 ZM 348.03570556640625 348.79998779296875 L 346.085693359375 348.79998779296875 L 346.085693359375 335.9599914550781 L 348.03570556640625 335.9599914550781 L 348.03570556640625 348.79998779296875 M 345.9256896972656 332.47998046875 C 345.9256896972656 332.0333251953125 346.03570556640625 331.7066650390625 346.2557067871094 331.5 C 346.4690246582031 331.2933349609375 346.74237060546875 331.19000244140625 347.07568359375 331.19000244140625 C 347.3890380859375 331.19000244140625 347.6590270996094 331.2933349609375 347.88568115234375 331.5 C 348.11236572265625 331.71331787109375 348.2257080078125 332.03997802734375 348.2257080078125 332.47998046875 C 348.2257080078125 332.913330078125 348.11236572265625 333.2366638183594 347.88568115234375 333.4499816894531 C 347.6590270996094 333.66998291015625 347.3890380859375 333.7799987792969 347.07568359375 333.7799987792969 C 346.74237060546875 333.7799987792969 346.4690246582031 333.66998291015625 346.2557067871094 333.4499816894531 C 346.03570556640625 333.2366638183594 345.9256896972656 332.913330078125 345.9256896972656 332.47998046875 ZM 360.0465087890625 348.79998779296875 L 360.0465087890625 340.489990234375 C 360.0465087890625 339.4433288574219 359.8098449707031 338.663330078125 359.3365173339844 338.1499938964844 C 358.85650634765625 337.6299743652344 358.1098327636719 337.3699951171875 357.09649658203125 337.3699951171875 C 355.7498474121094 337.3699951171875 354.7665100097656 337.7333068847656 354.1465148925781 338.4599914550781 C 353.51983642578125 339.1866455078125 353.2065124511719 340.38665771484375 353.2065124511719 342.05999755859375 L 353.2065124511719 348.79998779296875 L 351.2565002441406 348.79998779296875 L 351.2565002441406 335.9599914550781 L 352.8365173339844 335.9599914550781 L 353.156494140625 337.7099914550781 L 353.2464904785156 337.7099914550781 C 353.6465148925781 337.07666015625 354.2065124511719 336.586669921875 354.926513671875 336.239990234375 C 355.6465148925781 335.893310546875 356.4465026855469 335.7200012207031 357.3265075683594 335.7200012207031 C 358.8731689453125 335.7200012207031 360.0398254394531 336.09332275390625 360.8265075683594 336.8399963378906 C 361.60650634765625 337.586669921875 361.9964904785156 338.7799987792969 361.9964904785156 340.41998291015625 L 361.9964904785156 348.79998779296875 L 360.0465087890625 348.79998779296875 ZM 375.59686279296875 335.9599914550781 L 375.59686279296875 337.19000244140625 L 373.22686767578125 337.4700012207031 C 373.440185546875 337.7433166503906 373.6335144042969 338.0999755859375 373.8068542480469 338.53997802734375 C 373.9801940917969 338.97998046875 374.0668640136719 339.4766540527344 374.0668640136719 340.0299987792969 C 374.0668640136719 341.28997802734375 373.6368408203125 342.2966613769531 372.77685546875 343.04998779296875 C 371.9168701171875 343.7966613769531 370.7368469238281 344.16998291015625 369.2368469238281 344.16998291015625 C 368.8568420410156 344.16998291015625 368.4968566894531 344.1399841308594 368.1568603515625 344.0799865722656 C 367.3302001953125 344.5133056640625 366.9168701171875 345.0633239746094 366.9168701171875 345.72998046875 C 366.9168701171875 346.08331298828125 367.0601806640625 346.34332275390625 367.34686279296875 346.5099792480469 C 367.64019775390625 346.6766662597656 368.1368408203125 346.7599792480469 368.83685302734375 346.7599792480469 L 371.1168518066406 346.7599792480469 C 372.5035095214844 346.7599792480469 373.5701904296875 347.0533142089844 374.3168640136719 347.6399841308594 C 375.06353759765625 348.2266540527344 375.4368591308594 349.07666015625 375.4368591308594 350.19000244140625 C 375.4368591308594 351.6166687011719 374.8668518066406 352.70330810546875 373.72686767578125 353.4499816894531 C 372.58685302734375 354.1966552734375 370.92352294921875 354.5699768066406 368.7368469238281 354.5699768066406 C 367.0568542480469 354.5699768066406 365.76019287109375 354.25665283203125 364.84686279296875 353.6299743652344 C 363.940185546875 353.0033264160156 363.4868469238281 352.1199951171875 363.4868469238281 350.97998046875 C 363.4868469238281 350.1999816894531 363.7368469238281 349.5233154296875 364.2368469238281 348.9499816894531 C 364.7368469238281 348.3833312988281 365.440185546875 347.99664306640625 366.34686279296875 347.78997802734375 C 366.0135192871094 347.643310546875 365.7368469238281 347.413330078125 365.516845703125 347.0999755859375 C 365.2968444824219 346.7866516113281 365.1868591308594 346.4233093261719 365.1868591308594 346.0099792480469 C 365.1868591308594 345.5433349609375 365.3101806640625 345.1333312988281 365.5568542480469 344.7799987792969 C 365.8101806640625 344.4266662597656 366.2035217285156 344.086669921875 366.7368469238281 343.7599792480469 C 366.07684326171875 343.4866638183594 365.536865234375 343.0233154296875 365.1168518066406 342.3699951171875 C 364.6968688964844 341.7099914550781 364.4868469238281 340.9599914550781 364.4868469238281 340.1199951171875 C 364.4868469238281 338.71331787109375 364.9101867675781 337.62664794921875 365.7568664550781 336.8599853515625 C 366.603515625 336.0999755859375 367.8002014160156 335.7200012207031 369.34686279296875 335.7200012207031 C 370.0135192871094 335.7200012207031 370.6168518066406 335.79998779296875 371.1568603515625 335.9599914550781 L 375.59686279296875 335.9599914550781 M 365.3568420410156 350.9599914550781 C 365.3568420410156 351.6533203125 365.6501770019531 352.17999267578125 366.2368469238281 352.53997802734375 C 366.8235168457031 352.8999938964844 367.66351318359375 353.0799865722656 368.7568664550781 353.0799865722656 C 370.39019775390625 353.0799865722656 371.6001892089844 352.83331298828125 372.3868408203125 352.3399963378906 C 373.17352294921875 351.85333251953125 373.5668640136719 351.1933288574219 373.5668640136719 350.3599853515625 C 373.5668640136719 349.6666564941406 373.3501892089844 349.1833190917969 372.9168701171875 348.90997314453125 C 372.49017333984375 348.643310546875 371.68017578125 348.5099792480469 370.4868469238281 348.5099792480469 L 368.1568603515625 348.5099792480469 C 367.27685546875 348.5099792480469 366.5901794433594 348.7200012207031 366.09686279296875 349.1399841308594 C 365.603515625 349.55999755859375 365.3568420410156 350.1666564941406 365.3568420410156 350.9599914550781 M 366.4168701171875 340.0699768066406 C 366.4168701171875 340.9700012207031 366.6701965332031 341.6499938964844 367.1768493652344 342.1099853515625 C 367.68353271484375 342.5699768066406 368.39019775390625 342.79998779296875 369.2968444824219 342.79998779296875 C 371.1968688964844 342.79998779296875 372.1468505859375 341.87664794921875 372.1468505859375 340.0299987792969 C 372.1468505859375 338.10333251953125 371.18353271484375 337.1399841308594 369.2568664550781 337.1399841308594 C 368.3435363769531 337.1399841308594 367.6435241699219 337.38665771484375 367.1568603515625 337.8799743652344 C 366.66351318359375 338.3733215332031 366.4168701171875 339.10333251953125 366.4168701171875 340.0699768066406 Z" transform="matrix(6.3882880210876465, 0, 0, 6.502412796020508, -1820.4644775390625, -1729.424560546875)" style="fill: rgb(51, 51, 51); white-space: pre; color: rgb(51, 51, 51);"/></svg>