<?xml version="1.0" standalone="no"?>
<!DOCTYPE svg PUBLIC "-//W3C//DTD SVG 20010904//EN"
 "http://www.w3.org/TR/2001/REC-SVG-20010904/DTD/svg10.dtd">
<svg version="1.0" xmlns="http://www.w3.org/2000/svg"
 width="695.000000pt" height="756.000000pt" viewBox="0 0 695.000000 756.000000"
 preserveAspectRatio="xMidYMid meet">

<g transform="translate(0.000000,756.000000) scale(0.100000,-0.100000)"
fill="#000000" stroke="none">
<path d="M2919 7236 l-36 -21 238 -425 c131 -234 238 -428 239 -432 0 -5 -756
-8 -1680 -8 l-1680 0 0 -45 0 -45 1708 0 1708 0 368 -659 368 -658 38 21 38
20 -23 41 c-65 112 -685 1226 -685 1230 0 3 772 5 1715 5 l1715 0 0 45 0 45
-1743 0 -1742 0 -248 443 c-136 243 -250 447 -254 453 -6 7 -20 3 -44 -10z"/>
<path d="M2604 4126 l-42 -8 43 -164 42 -164 -1324 0 -1323 0 0 -45 0 -45
1334 0 c1262 0 1335 -1 1340 -17 3 -10 125 -481 271 -1048 146 -566 267 -1033
268 -1036 1 -3 21 -1 43 5 l41 11 -262 1015 c-144 558 -265 1027 -269 1043
l-6 27 2090 0 2090 0 0 45 0 45 -2105 0 c-1677 0 -2105 3 -2105 13 0 6 -19 84
-43 172 l-42 160 -41 -9z"/>
<path d="M4669 2617 l-27 -12 224 -580 c123 -319 220 -582 216 -586 -4 -3 -71
-56 -149 -118 l-141 -111 -2396 0 -2396 0 0 -45 0 -45 2336 -2 2335 -3 -335
-264 c-185 -145 -336 -270 -336 -276 0 -6 11 -22 25 -35 l24 -23 53 40 c29 22
202 158 383 302 l330 261 200 0 200 0 175 -455 c125 -324 179 -455 190 -455 8
1 27 6 41 13 l27 12 -164 425 c-90 234 -167 433 -170 443 -5 16 38 17 810 17
l816 0 0 45 0 45 -834 0 -834 0 -35 93 c-20 50 -37 97 -39 104 -2 6 195 167
437 357 242 191 444 353 450 361 7 11 3 22 -17 42 l-27 26 -38 -29 c-21 -15
-219 -171 -440 -346 -221 -174 -404 -314 -406 -310 -2 4 -100 258 -218 564
-153 398 -218 558 -229 558 -8 -1 -27 -6 -41 -13z m485 -1340 l26 -67 -122 0
c-67 0 -118 3 -114 8 36 36 173 138 178 133 4 -3 18 -36 32 -74z"/>
</g>
</svg>
