<?xml version="1.0" encoding="utf-8"?>
<svg id="master-artboard" viewBox="0 0 800 800" version="1.1" xmlns="http://www.w3.org/2000/svg" x="0px" y="0px" style="enable-background:new 0 0 1400 980;" width="800px" height="800px"><rect id="ee-background" x="0" y="0" width="800" height="800" style="fill: white; fill-opacity: 0; pointer-events: none;"/><path d="M 313.39556884765625 320 L 311.40557861328125 320 L 311.40557861328125 304.6400146484375 L 305.9755554199219 304.6400146484375 L 305.9755554199219 302.8699951171875 L 318.8155517578125 302.8699951171875 L 318.8155517578125 304.6400146484375 L 313.39556884765625 304.6400146484375 L 313.39556884765625 320 ZM 325.633544921875 320.2300109863281 C 323.7335510253906 320.2300109863281 322.2335510253906 319.6533203125 321.133544921875 318.5 C 320.04022216796875 317.3466796875 319.4935607910156 315.739990234375 319.4935607910156 313.67999267578125 C 319.4935607910156 311.61334228515625 320.0035400390625 309.9700012207031 321.0235595703125 308.75 C 322.0435485839844 307.5299987792969 323.41021728515625 306.9200134277344 325.1235656738281 306.9200134277344 C 326.73687744140625 306.9200134277344 328.0102233886719 307.45001220703125 328.94354248046875 308.510009765625 C 329.883544921875 309.57000732421875 330.3535461425781 310.9666748046875 330.3535461425781 312.70001220703125 L 330.3535461425781 313.92999267578125 L 321.5035400390625 313.92999267578125 C 321.5435485839844 315.4366760253906 321.9268798828125 316.5799865722656 322.653564453125 317.3599853515625 C 323.3735656738281 318.14666748046875 324.3902282714844 318.5400085449219 325.70355224609375 318.5400085449219 C 327.08355712890625 318.5400085449219 328.4502258300781 318.25 329.8035583496094 317.6700134277344 L 329.8035583496094 319.3999938964844 C 329.11688232421875 319.70001220703125 328.4668884277344 319.913330078125 327.8535461425781 320.0400085449219 C 327.240234375 320.1666564941406 326.5002136230469 320.2300109863281 325.633544921875 320.2300109863281 M 325.1035461425781 308.54998779296875 C 324.0702209472656 308.54998779296875 323.24688720703125 308.88665771484375 322.633544921875 309.55999755859375 C 322.0202331542969 310.23333740234375 321.66021728515625 311.163330078125 321.5535583496094 312.3500061035156 L 328.2735595703125 312.3500061035156 C 328.2735595703125 311.1233215332031 327.99688720703125 310.1833190917969 327.44354248046875 309.5299987792969 C 326.8968811035156 308.8766784667969 326.11688232421875 308.54998779296875 325.1035461425781 308.54998779296875 ZM 340.6690368652344 320 L 340.279052734375 318.1700134277344 L 340.1890563964844 318.1700134277344 C 339.5490417480469 318.9766540527344 338.9090576171875 319.5233459472656 338.26904296875 319.80999755859375 C 337.6357116699219 320.0899963378906 336.8423767089844 320.2300109863281 335.8890380859375 320.2300109863281 C 334.61572265625 320.2300109863281 333.6190490722656 319.9033203125 332.8990478515625 319.25 C 332.1723937988281 318.5966796875 331.8090515136719 317.663330078125 331.8090515136719 316.45001220703125 C 331.8090515136719 313.8566589355469 333.88238525390625 312.4966735839844 338.029052734375 312.3699951171875 L 340.20904541015625 312.29998779296875 L 340.20904541015625 311.5 C 340.20904541015625 310.49334716796875 339.99237060546875 309.75 339.5590515136719 309.2699890136719 C 339.1257019042969 308.7900085449219 338.432373046875 308.54998779296875 337.4790344238281 308.54998779296875 C 336.4123840332031 308.54998779296875 335.202392578125 308.8800048828125 333.84906005859375 309.5400085449219 L 333.2490539550781 308.04998779296875 C 333.88238525390625 307.7033386230469 334.5757141113281 307.4333190917969 335.32904052734375 307.239990234375 C 336.0823669433594 307.0466613769531 336.83905029296875 306.95001220703125 337.59906005859375 306.95001220703125 C 339.13238525390625 306.95001220703125 340.2657165527344 307.28668212890625 340.9990539550781 307.9599914550781 C 341.7390441894531 308.6400146484375 342.1090393066406 309.7300109863281 342.1090393066406 311.2300109863281 L 342.1090393066406 320 L 340.6690368652344 320 M 336.279052734375 318.6300048828125 C 337.4857177734375 318.6300048828125 338.4356994628906 318.2966613769531 339.1290588378906 317.6300048828125 C 339.8223876953125 316.9700012207031 340.1690368652344 316.0400085449219 340.1690368652344 314.8399963378906 L 340.1690368652344 313.67999267578125 L 338.21905517578125 313.7699890136719 C 336.67236328125 313.8233337402344 335.5590515136719 314.0633239746094 334.8790588378906 314.489990234375 C 334.1923828125 314.9100036621094 333.84906005859375 315.57000732421875 333.84906005859375 316.4700012207031 C 333.84906005859375 317.1766662597656 334.0623779296875 317.7133483886719 334.4890441894531 318.0799865722656 C 334.91571044921875 318.4466552734375 335.51239013671875 318.6300048828125 336.279052734375 318.6300048828125 ZM 350.35736083984375 320.2300109863281 C 348.4973449707031 320.2300109863281 347.0573425292969 319.6600036621094 346.037353515625 318.5199890136719 C 345.017333984375 317.3733215332031 344.5073547363281 315.7533264160156 344.5073547363281 313.6600036621094 C 344.5073547363281 311.5133361816406 345.0240173339844 309.85333251953125 346.0573425292969 308.67999267578125 C 347.0906677246094 307.50665283203125 348.56402587890625 306.9200134277344 350.47735595703125 306.9200134277344 C 351.09735107421875 306.9200134277344 351.71734619140625 306.9866638183594 352.33734130859375 307.1199951171875 C 352.95068359375 307.2533264160156 353.43402099609375 307.4100036621094 353.787353515625 307.5899963378906 L 353.1873474121094 309.239990234375 C 352.76068115234375 309.0666809082031 352.29400634765625 308.92333984375 351.787353515625 308.80999755859375 C 351.2740173339844 308.6966552734375 350.8240051269531 308.6400146484375 350.4373474121094 308.6400146484375 C 347.8240051269531 308.6400146484375 346.517333984375 310.3066711425781 346.517333984375 313.6400146484375 C 346.517333984375 315.21331787109375 346.83734130859375 316.42333984375 347.47735595703125 317.2699890136719 C 348.1106872558594 318.1166687011719 349.05401611328125 318.5400085449219 350.3073425292969 318.5400085449219 C 351.3740234375 318.5400085449219 352.4706726074219 318.3066711425781 353.59735107421875 317.8399963378906 L 353.59735107421875 319.57000732421875 C 352.7373352050781 320.010009765625 351.6573486328125 320.2300109863281 350.35736083984375 320.2300109863281 ZM 364.5338134765625 320 L 364.5338134765625 311.69000244140625 C 364.5338134765625 310.6433410644531 364.2971496582031 309.86334228515625 363.8238220214844 309.3500061035156 C 363.34381103515625 308.8299865722656 362.5971374511719 308.57000732421875 361.58380126953125 308.57000732421875 C 360.23046875 308.57000732421875 359.2438049316406 308.94000244140625 358.6238098144531 309.67999267578125 C 358.0038146972656 310.413330078125 357.6938171386719 311.6166687011719 357.6938171386719 313.2900085449219 L 357.6938171386719 320 L 355.7438049316406 320 L 355.7438049316406 301.7699890136719 L 357.6938171386719 301.7699890136719 L 357.6938171386719 307.2900085449219 C 357.6938171386719 307.95001220703125 357.66046142578125 308.5 357.59381103515625 308.94000244140625 L 357.71380615234375 308.94000244140625 C 358.1004638671875 308.32000732421875 358.64715576171875 307.8333435058594 359.35382080078125 307.4800109863281 C 360.06048583984375 307.1266784667969 360.86712646484375 306.95001220703125 361.7738037109375 306.95001220703125 C 363.3404846191406 306.95001220703125 364.51715087890625 307.32000732421875 365.3038024902344 308.05999755859375 C 366.0904846191406 308.8066711425781 366.4837951660156 309.99334716796875 366.4837951660156 311.6199951171875 L 366.4837951660156 320 L 364.5338134765625 320 ZM 371.52490234375 320 L 369.57489013671875 320 L 369.57489013671875 307.1600036621094 L 371.52490234375 307.1600036621094 L 371.52490234375 320 M 369.4148864746094 303.67999267578125 C 369.4148864746094 303.23333740234375 369.52490234375 302.90667724609375 369.7449035644531 302.70001220703125 C 369.9582214355469 302.49334716796875 370.2315673828125 302.3900146484375 370.56488037109375 302.3900146484375 C 370.87823486328125 302.3900146484375 371.1482238769531 302.49334716796875 371.3748779296875 302.70001220703125 C 371.6015625 302.913330078125 371.71490478515625 303.239990234375 371.71490478515625 303.67999267578125 C 371.71490478515625 304.11334228515625 371.6015625 304.4366760253906 371.3748779296875 304.6499938964844 C 371.1482238769531 304.8699951171875 370.87823486328125 304.9800109863281 370.56488037109375 304.9800109863281 C 370.2315673828125 304.9800109863281 369.9582214355469 304.8699951171875 369.7449035644531 304.6499938964844 C 369.52490234375 304.4366760253906 369.4148864746094 304.11334228515625 369.4148864746094 303.67999267578125 ZM 383.5360107421875 320 L 383.5360107421875 311.69000244140625 C 383.5360107421875 310.6433410644531 383.2993469238281 309.86334228515625 382.8260192871094 309.3500061035156 C 382.34600830078125 308.8299865722656 381.5993347167969 308.57000732421875 380.58599853515625 308.57000732421875 C 379.2393493652344 308.57000732421875 378.2560119628906 308.9333190917969 377.6360168457031 309.6600036621094 C 377.00933837890625 310.38665771484375 376.6960144042969 311.586669921875 376.6960144042969 313.260009765625 L 376.6960144042969 320 L 374.7460021972656 320 L 374.7460021972656 307.1600036621094 L 376.3260192871094 307.1600036621094 L 376.64599609375 308.9100036621094 L 376.7359924316406 308.9100036621094 C 377.1360168457031 308.27667236328125 377.6960144042969 307.78668212890625 378.416015625 307.44000244140625 C 379.1360168457031 307.09332275390625 379.9360046386719 306.9200134277344 380.8160095214844 306.9200134277344 C 382.3626708984375 306.9200134277344 383.5293273925781 307.2933349609375 384.3160095214844 308.0400085449219 C 385.09600830078125 308.78668212890625 385.4859924316406 309.9800109863281 385.4859924316406 311.6199951171875 L 385.4859924316406 320 L 383.5360107421875 320 ZM 399.08709716796875 307.1600036621094 L 399.08709716796875 308.3900146484375 L 396.71710205078125 308.6700134277344 C 396.930419921875 308.9433288574219 397.1237487792969 309.29998779296875 397.2970886230469 309.739990234375 C 397.4704284667969 310.17999267578125 397.5570983886719 310.6766662597656 397.5570983886719 311.2300109863281 C 397.5570983886719 312.489990234375 397.1270751953125 313.4966735839844 396.26708984375 314.25 C 395.4071044921875 314.9966735839844 394.2270812988281 315.3699951171875 392.7270812988281 315.3699951171875 C 392.3470764160156 315.3699951171875 391.9870910644531 315.3399963378906 391.6470947265625 315.2799987792969 C 390.8204345703125 315.71331787109375 390.4071044921875 316.2633361816406 390.4071044921875 316.92999267578125 C 390.4071044921875 317.2833251953125 390.5504150390625 317.5433349609375 390.83709716796875 317.7099914550781 C 391.13043212890625 317.8766784667969 391.6270751953125 317.9599914550781 392.32708740234375 317.9599914550781 L 394.6070861816406 317.9599914550781 C 395.9937438964844 317.9599914550781 397.0604248046875 318.2533264160156 397.8070983886719 318.8399963378906 C 398.55377197265625 319.4266662597656 398.9270935058594 320.27667236328125 398.9270935058594 321.3900146484375 C 398.9270935058594 322.8166809082031 398.3570861816406 323.9033203125 397.21710205078125 324.6499938964844 C 396.07708740234375 325.39666748046875 394.41375732421875 325.7699890136719 392.2270812988281 325.7699890136719 C 390.5470886230469 325.7699890136719 389.25042724609375 325.4566650390625 388.33709716796875 324.8299865722656 C 387.430419921875 324.2033386230469 386.9770812988281 323.32000732421875 386.9770812988281 322.17999267578125 C 386.9770812988281 321.3999938964844 387.2270812988281 320.72332763671875 387.7270812988281 320.1499938964844 C 388.2270812988281 319.5833435058594 388.930419921875 319.1966552734375 389.83709716796875 318.989990234375 C 389.5037536621094 318.84332275390625 389.2270812988281 318.61334228515625 389.007080078125 318.29998779296875 C 388.7870788574219 317.9866638183594 388.6770935058594 317.6233215332031 388.6770935058594 317.2099914550781 C 388.6770935058594 316.74334716796875 388.8004150390625 316.3333435058594 389.0470886230469 315.9800109863281 C 389.3004150390625 315.6266784667969 389.6937561035156 315.28668212890625 390.2270812988281 314.9599914550781 C 389.56707763671875 314.6866760253906 389.027099609375 314.22332763671875 388.6070861816406 313.57000732421875 C 388.1871032714844 312.9100036621094 387.9770812988281 312.1600036621094 387.9770812988281 311.32000732421875 C 387.9770812988281 309.913330078125 388.4004211425781 308.82666015625 389.2471008300781 308.05999755859375 C 390.09375 307.29998779296875 391.2904357910156 306.9200134277344 392.83709716796875 306.9200134277344 C 393.5037536621094 306.9200134277344 394.1070861816406 307 394.6470947265625 307.1600036621094 L 399.08709716796875 307.1600036621094 M 388.8470764160156 322.1600036621094 C 388.8470764160156 322.85333251953125 389.1404113769531 323.3800048828125 389.7270812988281 323.739990234375 C 390.3137512207031 324.1000061035156 391.15374755859375 324.2799987792969 392.2471008300781 324.2799987792969 C 393.88043212890625 324.2799987792969 395.0904235839844 324.0333251953125 395.8770751953125 323.5400085449219 C 396.66375732421875 323.0533447265625 397.0570983886719 322.3933410644531 397.0570983886719 321.55999755859375 C 397.0570983886719 320.8666687011719 396.8404235839844 320.3833312988281 396.4071044921875 320.1099853515625 C 395.98040771484375 319.84332275390625 395.17041015625 319.7099914550781 393.9770812988281 319.7099914550781 L 391.6470947265625 319.7099914550781 C 390.76708984375 319.7099914550781 390.0804138183594 319.9200134277344 389.58709716796875 320.3399963378906 C 389.09375 320.760009765625 388.8470764160156 321.3666687011719 388.8470764160156 322.1600036621094 M 389.9071044921875 311.2699890136719 C 389.9071044921875 312.1700134277344 390.1604309082031 312.8500061035156 390.6670837402344 313.30999755859375 C 391.17376708984375 313.7699890136719 391.88043212890625 314 392.7870788574219 314 C 394.6871032714844 314 395.6370849609375 313.07666015625 395.6370849609375 311.2300109863281 C 395.6370849609375 309.3033447265625 394.67376708984375 308.3399963378906 392.7471008300781 308.3399963378906 C 391.8337707519531 308.3399963378906 391.1337585449219 308.586669921875 390.6470947265625 309.0799865722656 C 390.15374755859375 309.5733337402344 389.9071044921875 310.3033447265625 389.9071044921875 311.2699890136719 ZM 317.7855529785156 344.239990234375 C 317.7855529785156 345.74664306640625 317.2388916015625 346.9233093261719 316.14556884765625 347.7699890136719 C 315.05224609375 348.6099853515625 313.56890869140625 349.0299987792969 311.695556640625 349.0299987792969 C 309.6622314453125 349.0299987792969 308.0989074707031 348.7699890136719 307.00555419921875 348.25 L 307.00555419921875 346.3299865722656 C 307.71221923828125 346.6233215332031 308.4789123535156 346.8566589355469 309.3055725097656 347.0299987792969 C 310.1322326660156 347.20330810546875 310.9522399902344 347.28997802734375 311.76556396484375 347.28997802734375 C 313.09222412109375 347.28997802734375 314.09222412109375 347.0366516113281 314.76556396484375 346.5299987792969 C 315.43890380859375 346.0299987792969 315.77557373046875 345.3299865722656 315.77557373046875 344.42999267578125 C 315.77557373046875 343.836669921875 315.65557861328125 343.3499755859375 315.4155578613281 342.9700012207031 C 315.1755676269531 342.5899963378906 314.7789001464844 342.239990234375 314.2255554199219 341.91998291015625 C 313.6655578613281 341.5999755859375 312.8155517578125 341.2366638183594 311.6755676269531 340.8299865722656 C 310.0822448730469 340.2633056640625 308.9422302246094 339.586669921875 308.25555419921875 338.79998779296875 C 307.56890869140625 338.0199890136719 307.2255554199219 337.0033264160156 307.2255554199219 335.75 C 307.2255554199219 334.4233093261719 307.72222900390625 333.3699951171875 308.715576171875 332.5899963378906 C 309.7088928222656 331.80999755859375 311.022216796875 331.41998291015625 312.65557861328125 331.41998291015625 C 314.36224365234375 331.41998291015625 315.92889404296875 331.7333068847656 317.3555603027344 332.3599853515625 L 316.7355651855469 334.0899963378906 C 315.3222351074219 333.49664306640625 313.945556640625 333.1999816894531 312.6055603027344 333.1999816894531 C 311.55224609375 333.1999816894531 310.7288818359375 333.4266662597656 310.13555908203125 333.8799743652344 C 309.542236328125 334.33331298828125 309.2455749511719 334.96331787109375 309.2455749511719 335.7699890136719 C 309.2455749511719 336.3633117675781 309.3555603027344 336.8499755859375 309.5755615234375 337.22998046875 C 309.7955627441406 337.6099853515625 310.1655578613281 337.9566650390625 310.6855773925781 338.2699890136719 C 311.20556640625 338.5899963378906 311.9989013671875 338.94000244140625 313.0655517578125 339.3199768066406 C 314.8655700683594 339.9599914550781 316.10223388671875 340.64666748046875 316.77557373046875 341.3799743652344 C 317.4488830566406 342.1133117675781 317.7855529785156 343.066650390625 317.7855529785156 344.239990234375 ZM 324.2480773925781 347.42999267578125 C 324.5947570800781 347.42999267578125 324.9281005859375 347.4033203125 325.2480773925781 347.3499755859375 C 325.5680847167969 347.3033142089844 325.8214111328125 347.25 326.0080871582031 347.19000244140625 L 326.0080871582031 348.67999267578125 C 325.79473876953125 348.7866516113281 325.4847412109375 348.8699951171875 325.0780944824219 348.92999267578125 C 324.6647644042969 348.99664306640625 324.29473876953125 349.0299987792969 323.96807861328125 349.0299987792969 C 321.4814147949219 349.0299987792969 320.23809814453125 347.72332763671875 320.23809814453125 345.1099853515625 L 320.23809814453125 337.4700012207031 L 318.3980712890625 337.4700012207031 L 318.3980712890625 336.5299987792969 L 320.23809814453125 335.7200012207031 L 321.0580749511719 332.97998046875 L 322.1880798339844 332.97998046875 L 322.1880798339844 335.9599914550781 L 325.9180908203125 335.9599914550781 L 325.9180908203125 337.4700012207031 L 322.1880798339844 337.4700012207031 L 322.1880798339844 345.0299987792969 C 322.1880798339844 345.8033142089844 322.3714294433594 346.39666748046875 322.73809814453125 346.80999755859375 C 323.1047668457031 347.22332763671875 323.60809326171875 347.42999267578125 324.2480773925781 347.42999267578125 ZM 335.57147216796875 348.79998779296875 L 335.1814880371094 346.9700012207031 L 335.09149169921875 346.9700012207031 C 334.45147705078125 347.7766418457031 333.8114929199219 348.3233337402344 333.1714782714844 348.6099853515625 C 332.53814697265625 348.8899841308594 331.74481201171875 349.0299987792969 330.7914733886719 349.0299987792969 C 329.5181579589844 349.0299987792969 328.521484375 348.70330810546875 327.8014831542969 348.04998779296875 C 327.0748291015625 347.39666748046875 326.71148681640625 346.46331787109375 326.71148681640625 345.25 C 326.71148681640625 342.6566467285156 328.7848205566406 341.2966613769531 332.9314880371094 341.16998291015625 L 335.1114807128906 341.0999755859375 L 335.1114807128906 340.29998779296875 C 335.1114807128906 339.2933349609375 334.8948059082031 338.54998779296875 334.46148681640625 338.0699768066406 C 334.02813720703125 337.5899963378906 333.3348083496094 337.3499755859375 332.3814697265625 337.3499755859375 C 331.3148193359375 337.3499755859375 330.1048278808594 337.67999267578125 328.7514953613281 338.3399963378906 L 328.1514892578125 336.8499755859375 C 328.7848205566406 336.5033264160156 329.4781494140625 336.2333068847656 330.2314758300781 336.03997802734375 C 330.98480224609375 335.8466491699219 331.7414855957031 335.75 332.5014953613281 335.75 C 334.0348205566406 335.75 335.16815185546875 336.086669921875 335.9014892578125 336.7599792480469 C 336.6414794921875 337.44000244140625 337.011474609375 338.5299987792969 337.011474609375 340.0299987792969 L 337.011474609375 348.79998779296875 L 335.57147216796875 348.79998779296875 M 331.1814880371094 347.42999267578125 C 332.3881530761719 347.42999267578125 333.338134765625 347.0966491699219 334.031494140625 346.42999267578125 C 334.7248229980469 345.7699890136719 335.07147216796875 344.8399963378906 335.07147216796875 343.6399841308594 L 335.07147216796875 342.47998046875 L 333.1214904785156 342.5699768066406 C 331.5748291015625 342.6233215332031 330.46148681640625 342.8633117675781 329.781494140625 343.28997802734375 C 329.0948181152344 343.7099914550781 328.7514953613281 344.3699951171875 328.7514953613281 345.2699890136719 C 328.7514953613281 345.9766540527344 328.9648132324219 346.5133361816406 329.3914794921875 346.8799743652344 C 329.8181457519531 347.24664306640625 330.4148254394531 347.42999267578125 331.1814880371094 347.42999267578125 ZM 344.269775390625 347.42999267578125 C 344.616455078125 347.42999267578125 344.9497985839844 347.4033203125 345.269775390625 347.3499755859375 C 345.58978271484375 347.3033142089844 345.8431091308594 347.25 346.02978515625 347.19000244140625 L 346.02978515625 348.67999267578125 C 345.8164367675781 348.7866516113281 345.5064392089844 348.8699951171875 345.09979248046875 348.92999267578125 C 344.68646240234375 348.99664306640625 344.3164367675781 349.0299987792969 343.9897766113281 349.0299987792969 C 341.50311279296875 349.0299987792969 340.2597961425781 347.72332763671875 340.2597961425781 345.1099853515625 L 340.2597961425781 337.4700012207031 L 338.4197692871094 337.4700012207031 L 338.4197692871094 336.5299987792969 L 340.2597961425781 335.7200012207031 L 341.07977294921875 332.97998046875 L 342.20977783203125 332.97998046875 L 342.20977783203125 335.9599914550781 L 345.9397888183594 335.9599914550781 L 345.9397888183594 337.4700012207031 L 342.20977783203125 337.4700012207031 L 342.20977783203125 345.0299987792969 C 342.20977783203125 345.8033142089844 342.39312744140625 346.39666748046875 342.7597961425781 346.80999755859375 C 343.12646484375 347.22332763671875 343.6297912597656 347.42999267578125 344.269775390625 347.42999267578125 ZM 349.6431884765625 348.79998779296875 L 347.69317626953125 348.79998779296875 L 347.69317626953125 335.9599914550781 L 349.6431884765625 335.9599914550781 L 349.6431884765625 348.79998779296875 M 347.5331726074219 332.47998046875 C 347.5331726074219 332.0333251953125 347.6431884765625 331.7066650390625 347.8631896972656 331.5 C 348.0765075683594 331.2933349609375 348.349853515625 331.19000244140625 348.68316650390625 331.19000244140625 C 348.99652099609375 331.19000244140625 349.2665100097656 331.2933349609375 349.4931640625 331.5 C 349.7198486328125 331.71331787109375 349.83319091796875 332.03997802734375 349.83319091796875 332.47998046875 C 349.83319091796875 332.913330078125 349.7198486328125 333.2366638183594 349.4931640625 333.4499816894531 C 349.2665100097656 333.66998291015625 348.99652099609375 333.7799987792969 348.68316650390625 333.7799987792969 C 348.349853515625 333.7799987792969 348.0765075683594 333.66998291015625 347.8631896972656 333.4499816894531 C 347.6431884765625 333.2366638183594 347.5331726074219 332.913330078125 347.5331726074219 332.47998046875 ZM 361.154296875 345.29998779296875 C 361.154296875 346.4933166503906 360.7076110839844 347.413330078125 359.8143005371094 348.05999755859375 C 358.9276123046875 348.7066650390625 357.6776123046875 349.0299987792969 356.0643005371094 349.0299987792969 C 354.3642883300781 349.0299987792969 353.0376281738281 348.7633361816406 352.08428955078125 348.22998046875 L 352.08428955078125 346.41998291015625 C 352.6976318359375 346.7333068847656 353.3576354980469 346.97998046875 354.0643005371094 347.15997314453125 C 354.7709655761719 347.3399963378906 355.45428466796875 347.42999267578125 356.1142883300781 347.42999267578125 C 357.12762451171875 347.42999267578125 357.9076232910156 347.26666259765625 358.45428466796875 346.94000244140625 C 359.0009460449219 346.6199951171875 359.2742919921875 346.12664794921875 359.2742919921875 345.4599914550781 C 359.2742919921875 344.9599914550781 359.0576171875 344.5333251953125 358.6242980957031 344.17999267578125 C 358.1909484863281 343.8199768066406 357.3476257324219 343.3999938964844 356.09429931640625 342.91998291015625 C 354.894287109375 342.47332763671875 354.0442810058594 342.08331298828125 353.5442810058594 341.75 C 353.0376281738281 341.4166564941406 352.66094970703125 341.03997802734375 352.4142761230469 340.6199951171875 C 352.1676330566406 340.1999816894531 352.0442810058594 339.6966552734375 352.0442810058594 339.1099853515625 C 352.0442810058594 338.0633239746094 352.470947265625 337.2366638183594 353.32427978515625 336.6299743652344 C 354.1776123046875 336.0233154296875 355.34429931640625 335.7200012207031 356.82427978515625 335.7200012207031 C 358.2109680175781 335.7200012207031 359.5643005371094 336.0033264160156 360.88427734375 336.5699768066406 L 360.1943054199219 338.1499938964844 C 358.9009704589844 337.6166687011719 357.73095703125 337.3499755859375 356.6842956542969 337.3499755859375 C 355.7642822265625 337.3499755859375 355.0709533691406 337.4933166503906 354.6042785644531 337.7799987792969 C 354.1309509277344 338.0733337402344 353.894287109375 338.47332763671875 353.894287109375 338.97998046875 C 353.894287109375 339.32666015625 353.9842834472656 339.6199951171875 354.1642761230469 339.8599853515625 C 354.3376159667969 340.0999755859375 354.6209716796875 340.3299865722656 355.0142822265625 340.54998779296875 C 355.4009704589844 340.7699890136719 356.1509704589844 341.086669921875 357.2642822265625 341.5 C 358.7843017578125 342.0533142089844 359.8109436035156 342.6099853515625 360.34429931640625 343.16998291015625 C 360.88427734375 343.7366638183594 361.154296875 344.4466552734375 361.154296875 345.29998779296875 ZM 367.5641784667969 347.42999267578125 C 367.9108581542969 347.42999267578125 368.24420166015625 347.4033203125 368.5641784667969 347.3499755859375 C 368.8841857910156 347.3033142089844 369.13751220703125 347.25 369.3241882324219 347.19000244140625 L 369.3241882324219 348.67999267578125 C 369.11083984375 348.7866516113281 368.80084228515625 348.8699951171875 368.3941955566406 348.92999267578125 C 367.9808654785156 348.99664306640625 367.61083984375 349.0299987792969 367.2841796875 349.0299987792969 C 364.7975158691406 349.0299987792969 363.55419921875 347.72332763671875 363.55419921875 345.1099853515625 L 363.55419921875 337.4700012207031 L 361.71417236328125 337.4700012207031 L 361.71417236328125 336.5299987792969 L 363.55419921875 335.7200012207031 L 364.3741760253906 332.97998046875 L 365.5041809082031 332.97998046875 L 365.5041809082031 335.9599914550781 L 369.23419189453125 335.9599914550781 L 369.23419189453125 337.4700012207031 L 365.5041809082031 337.4700012207031 L 365.5041809082031 345.0299987792969 C 365.5041809082031 345.8033142089844 365.6875305175781 346.39666748046875 366.05419921875 346.80999755859375 C 366.4208679199219 347.22332763671875 366.9241943359375 347.42999267578125 367.5641784667969 347.42999267578125 ZM 372.9375915527344 348.79998779296875 L 370.9875793457031 348.79998779296875 L 370.9875793457031 335.9599914550781 L 372.9375915527344 335.9599914550781 L 372.9375915527344 348.79998779296875 M 370.82757568359375 332.47998046875 C 370.82757568359375 332.0333251953125 370.9375915527344 331.7066650390625 371.1575927734375 331.5 C 371.37091064453125 331.2933349609375 371.6442565917969 331.19000244140625 371.9775695800781 331.19000244140625 C 372.2909240722656 331.19000244140625 372.5609130859375 331.2933349609375 372.7875671386719 331.5 C 373.0142517089844 331.71331787109375 373.1275939941406 332.03997802734375 373.1275939941406 332.47998046875 C 373.1275939941406 332.913330078125 373.0142517089844 333.2366638183594 372.7875671386719 333.4499816894531 C 372.5609130859375 333.66998291015625 372.2909240722656 333.7799987792969 371.9775695800781 333.7799987792969 C 371.6442565917969 333.7799987792969 371.37091064453125 333.66998291015625 371.1575927734375 333.4499816894531 C 370.9375915527344 333.2366638183594 370.82757568359375 332.913330078125 370.82757568359375 332.47998046875 ZM 381.2987060546875 349.0299987792969 C 379.4386901855469 349.0299987792969 377.9986877441406 348.4599914550781 376.97869873046875 347.3199768066406 C 375.95867919921875 346.1733093261719 375.4486999511719 344.5533142089844 375.4486999511719 342.4599914550781 C 375.4486999511719 340.3133239746094 375.9653625488281 338.6533203125 376.9986877441406 337.47998046875 C 378.0320129394531 336.306640625 379.50537109375 335.7200012207031 381.418701171875 335.7200012207031 C 382.0386962890625 335.7200012207031 382.65869140625 335.7866516113281 383.2786865234375 335.91998291015625 C 383.89202880859375 336.0533142089844 384.3753662109375 336.2099914550781 384.72869873046875 336.3899841308594 L 384.1286926269531 338.03997802734375 C 383.7020263671875 337.8666687011719 383.2353515625 337.72332763671875 382.72869873046875 337.6099853515625 C 382.2153625488281 337.49664306640625 381.7653503417969 337.44000244140625 381.3786926269531 337.44000244140625 C 378.7653503417969 337.44000244140625 377.45867919921875 339.1066589355469 377.45867919921875 342.44000244140625 C 377.45867919921875 344.0133056640625 377.7786865234375 345.22332763671875 378.418701171875 346.0699768066406 C 379.0520324707031 346.9166564941406 379.995361328125 347.3399963378906 381.2486877441406 347.3399963378906 C 382.31536865234375 347.3399963378906 383.4120178222656 347.1066589355469 384.5386962890625 346.6399841308594 L 384.5386962890625 348.3699951171875 C 383.6786804199219 348.80999755859375 382.59869384765625 349.0299987792969 381.2987060546875 349.0299987792969 ZM 394.97515869140625 345.29998779296875 C 394.97515869140625 346.4933166503906 394.5284729003906 347.413330078125 393.6351623535156 348.05999755859375 C 392.74847412109375 348.7066650390625 391.49847412109375 349.0299987792969 389.8851623535156 349.0299987792969 C 388.1851501464844 349.0299987792969 386.8584899902344 348.7633361816406 385.9051513671875 348.22998046875 L 385.9051513671875 346.41998291015625 C 386.51849365234375 346.7333068847656 387.1784973144531 346.97998046875 387.8851623535156 347.15997314453125 C 388.5918273925781 347.3399963378906 389.275146484375 347.42999267578125 389.9351501464844 347.42999267578125 C 390.948486328125 347.42999267578125 391.7284851074219 347.26666259765625 392.275146484375 346.94000244140625 C 392.8218078613281 346.6199951171875 393.09515380859375 346.12664794921875 393.09515380859375 345.4599914550781 C 393.09515380859375 344.9599914550781 392.87847900390625 344.5333251953125 392.4451599121094 344.17999267578125 C 392.0118103027344 343.8199768066406 391.1684875488281 343.3999938964844 389.9151611328125 342.91998291015625 C 388.71514892578125 342.47332763671875 387.8651428222656 342.08331298828125 387.3651428222656 341.75 C 386.8584899902344 341.4166564941406 386.4818115234375 341.03997802734375 386.2351379394531 340.6199951171875 C 385.9884948730469 340.1999816894531 385.8651428222656 339.6966552734375 385.8651428222656 339.1099853515625 C 385.8651428222656 338.0633239746094 386.29180908203125 337.2366638183594 387.1451416015625 336.6299743652344 C 387.99847412109375 336.0233154296875 389.1651611328125 335.7200012207031 390.6451416015625 335.7200012207031 C 392.0318298339844 335.7200012207031 393.3851623535156 336.0033264160156 394.70513916015625 336.5699768066406 L 394.0151672363281 338.1499938964844 C 392.7218322753906 337.6166687011719 391.55181884765625 337.3499755859375 390.5051574707031 337.3499755859375 C 389.58514404296875 337.3499755859375 388.8918151855469 337.4933166503906 388.4251403808594 337.7799987792969 C 387.9518127441406 338.0733337402344 387.71514892578125 338.47332763671875 387.71514892578125 338.97998046875 C 387.71514892578125 339.32666015625 387.8051452636719 339.6199951171875 387.9851379394531 339.8599853515625 C 388.1584777832031 340.0999755859375 388.44183349609375 340.3299865722656 388.83514404296875 340.54998779296875 C 389.2218322753906 340.7699890136719 389.9718322753906 341.086669921875 391.08514404296875 341.5 C 392.60516357421875 342.0533142089844 393.6318054199219 342.6099853515625 394.1651611328125 343.16998291015625 C 394.70513916015625 343.7366638183594 394.97515869140625 344.4466552734375 394.97515869140625 345.29998779296875 Z" transform="matrix(6.3882880210876465, 0, 0, 6.502412796020508, -1833.8856201171875, -1724.544189453125)" style="fill: rgb(51, 51, 51); white-space: pre; color: rgb(51, 51, 51);"/></svg>