<?xml version="1.0" encoding="utf-8"?>
<svg id="master-artboard" viewBox="0 0 800 800" version="1.1" xmlns="http://www.w3.org/2000/svg" x="0px" y="0px" style="enable-background:new 0 0 1400 980;" width="800px" height="800px"><rect id="ee-background" x="0" y="0" width="800" height="800" style="fill: white; fill-opacity: 0; pointer-events: none;"/><path d="M 315.70556640625 320 L 309.89556884765625 304.80999755859375 L 309.7955627441406 304.80999755859375 C 309.9089050292969 306.01666259765625 309.965576171875 307.4466552734375 309.965576171875 309.1000061035156 L 309.965576171875 320 L 308.12554931640625 320 L 308.12554931640625 302.8699951171875 L 311.12554931640625 302.8699951171875 L 316.5455627441406 317 L 316.64556884765625 317 L 322.1155700683594 302.8699951171875 L 325.0855712890625 302.8699951171875 L 325.0855712890625 320 L 323.0955505371094 320 L 323.0955505371094 308.9599914550781 C 323.0955505371094 307.6933288574219 323.1522216796875 306.32000732421875 323.26556396484375 304.8399963378906 L 323.1655578613281 304.8399963378906 L 317.3055725097656 320 L 315.70556640625 320 ZM 334.02294921875 320.2300109863281 C 332.1229553222656 320.2300109863281 330.6229553222656 319.6533203125 329.52294921875 318.5 C 328.42962646484375 317.3466796875 327.8829650878906 315.739990234375 327.8829650878906 313.67999267578125 C 327.8829650878906 311.61334228515625 328.3929443359375 309.9700012207031 329.4129638671875 308.75 C 330.4329528808594 307.5299987792969 331.79962158203125 306.9200134277344 333.5129699707031 306.9200134277344 C 335.12628173828125 306.9200134277344 336.3996276855469 307.45001220703125 337.33294677734375 308.510009765625 C 338.27294921875 309.57000732421875 338.7429504394531 310.9666748046875 338.7429504394531 312.70001220703125 L 338.7429504394531 313.92999267578125 L 329.8929443359375 313.92999267578125 C 329.9329528808594 315.4366760253906 330.3162841796875 316.5799865722656 331.04296875 317.3599853515625 C 331.7629699707031 318.14666748046875 332.7796325683594 318.5400085449219 334.09295654296875 318.5400085449219 C 335.47296142578125 318.5400085449219 336.8396301269531 318.25 338.1929626464844 317.6700134277344 L 338.1929626464844 319.3999938964844 C 337.50628662109375 319.70001220703125 336.8562927246094 319.913330078125 336.2429504394531 320.0400085449219 C 335.629638671875 320.1666564941406 334.8896179199219 320.2300109863281 334.02294921875 320.2300109863281 M 333.4929504394531 308.54998779296875 C 332.4596252441406 308.54998779296875 331.63629150390625 308.88665771484375 331.02294921875 309.55999755859375 C 330.4096374511719 310.23333740234375 330.04962158203125 311.163330078125 329.9429626464844 312.3500061035156 L 336.6629638671875 312.3500061035156 C 336.6629638671875 311.1233215332031 336.38629150390625 310.1833190917969 335.83294677734375 309.5299987792969 C 335.2862854003906 308.8766784667969 334.50628662109375 308.54998779296875 333.4929504394531 308.54998779296875 ZM 349.9477844238281 320 L 349.9477844238281 311.69000244140625 C 349.9477844238281 310.6433410644531 349.71112060546875 309.86334228515625 349.23779296875 309.3500061035156 C 348.7577819824219 308.8299865722656 348.0111083984375 308.57000732421875 346.9977722167969 308.57000732421875 C 345.651123046875 308.57000732421875 344.66778564453125 308.9333190917969 344.04779052734375 309.6600036621094 C 343.4211120605469 310.38665771484375 343.1077880859375 311.586669921875 343.1077880859375 313.260009765625 L 343.1077880859375 320 L 341.15777587890625 320 L 341.15777587890625 307.1600036621094 L 342.73779296875 307.1600036621094 L 343.0577697753906 308.9100036621094 L 343.14776611328125 308.9100036621094 C 343.54779052734375 308.27667236328125 344.1077880859375 307.78668212890625 344.8277893066406 307.44000244140625 C 345.54779052734375 307.09332275390625 346.3477783203125 306.9200134277344 347.227783203125 306.9200134277344 C 348.7744445800781 306.9200134277344 349.94110107421875 307.2933349609375 350.727783203125 308.0400085449219 C 351.5077819824219 308.78668212890625 351.89776611328125 309.9800109863281 351.89776611328125 311.6199951171875 L 351.89776611328125 320 L 349.9477844238281 320 ZM 356.8181457519531 307.1600036621094 L 356.8181457519531 315.489990234375 C 356.8181457519531 316.5366516113281 357.0581359863281 317.3166809082031 357.5381164550781 317.8299865722656 C 358.011474609375 318.3500061035156 358.7547912597656 318.6099853515625 359.76812744140625 318.6099853515625 C 361.11480712890625 318.6099853515625 362.09814453125 318.239990234375 362.7181396484375 317.5 C 363.338134765625 316.76666259765625 363.64813232421875 315.57000732421875 363.64813232421875 313.9100036621094 L 363.64813232421875 307.1600036621094 L 365.59814453125 307.1600036621094 L 365.59814453125 320 L 363.9881286621094 320 L 363.7081298828125 318.2799987792969 L 363.6081237792969 318.2799987792969 C 363.2081298828125 318.913330078125 362.65478515625 319.39666748046875 361.9481201171875 319.7300109863281 C 361.241455078125 320.0633239746094 360.4347839355469 320.2300109863281 359.52813720703125 320.2300109863281 C 357.9614562988281 320.2300109863281 356.7914733886719 319.8599853515625 356.01812744140625 319.1199951171875 C 355.2381286621094 318.3800048828125 354.84814453125 317.1933288574219 354.84814453125 315.55999755859375 L 354.84814453125 307.1600036621094 L 356.8181457519531 307.1600036621094 ZM 380.4733581542969 320 L 378.5733642578125 320 L 378.5733642578125 307.7900085449219 C 378.5733642578125 306.77667236328125 378.6033630371094 305.8166809082031 378.6633605957031 304.9100036621094 C 378.50335693359375 305.07000732421875 378.32000732421875 305.239990234375 378.11334228515625 305.4200134277344 C 377.9133605957031 305.6000061035156 376.9833679199219 306.36334228515625 375.3233642578125 307.7099914550781 L 374.2933654785156 306.3699951171875 L 378.8333435058594 302.8699951171875 L 380.4733581542969 302.8699951171875 L 380.4733581542969 320 Z" transform="matrix(6.3882880210876465, 0, 0, 6.502412796020508, -1797.28271484375, -1664.759521484375)" style="fill: rgb(51, 51, 51); white-space: pre; color: rgb(51, 51, 51);"/></svg>